<?xml version="1.0" standalone="no"?>
<!DOCTYPE svg PUBLIC "-//W3C//DTD SVG 20010904//EN"
 "http://www.w3.org/TR/2001/REC-SVG-20010904/DTD/svg10.dtd">
<svg version="1.0" xmlns="http://www.w3.org/2000/svg"
 width="1536.000000pt" height="1024.000000pt" viewBox="0 0 1536.000000 1024.000000"
 preserveAspectRatio="xMidYMid meet">

<g transform="translate(0.000000,1024.000000) scale(0.100000,-0.100000)"
fill="#000000" stroke="none">
<path d="M3814 6481 c-51 -13 -103 -50 -132 -94 -22 -34 -27 -52 -27 -106 0
-66 20 -135 36 -125 5 3 6 -1 4 -9 -4 -9 141 -255 180 -304 6 -9 192 293 208
337 39 114 3 227 -89 277 -45 25 -132 36 -180 24z m130 -142 c36 -43 35 -91
-3 -130 -22 -21 -39 -29 -66 -29 -51 0 -95 44 -95 95 0 86 110 129 164 64z"/>
<path d="M4500 6349 c0 -7 -2 -10 -5 -7 -3 3 -30 -20 -60 -52 -52 -53 -70 -80
-43 -64 13 8 6 -4 -34 -60 -15 -21 -28 -35 -28 -31 0 4 12 23 26 42 14 19 24
37 21 40 -9 8 -84 -111 -128 -204 -34 -72 -45 -102 -36 -103 144 -18 249 -30
275 -30 l32 0 0 234 c0 146 -4 237 -10 241 -5 3 -10 1 -10 -6z m-42 -63 c-24
-24 -45 -42 -47 -40 -6 6 71 84 82 84 4 0 -11 -20 -35 -44z m-138 -183 c0 -5
-10 -19 -21 -33 l-21 -25 18 33 c18 32 24 38 24 25z m-7 -190 c-7 -2 -19 -2
-25 0 -7 3 -2 5 12 5 14 0 19 -2 13 -5z m194 -19 c-3 -3 -12 -4 -19 -1 -8 3
-5 6 6 6 11 1 17 -2 13 -5z"/>
<path d="M4602 6123 c-1 -134 1 -243 6 -243 4 0 6 71 4 157 -4 299 -8 327 -10
86z"/>
<path d="M4670 6298 c41 -45 50 -53 50 -45 0 2 -21 23 -47 47 l-48 45 45 -47z"/>
<path d="M4751 6337 c-1 -4 16 -34 37 -65 21 -31 56 -87 76 -124 21 -38 40
-68 43 -68 6 0 -62 123 -103 185 -25 37 -30 51 -21 58 8 6 7 7 -5 4 -9 -3 -19
-1 -22 6 -2 7 -5 8 -5 4z"/>
<path d="M4257 6302 c-66 -26 -68 -28 -88 -82 -20 -52 -53 -118 -113 -222 -26
-45 -26 -48 -9 -54 10 -4 32 -13 50 -20 24 -9 34 -10 41 -1 20 27 72 169 66
179 -4 7 -3 8 4 4 14 -8 46 50 36 66 -4 6 -3 8 4 5 6 -4 24 14 40 40 17 27 40
63 52 81 21 30 21 32 3 32 -10 -1 -48 -13 -86 -28z m17 -87 c-9 -14 -18 -25
-21 -25 -5 0 5 18 20 38 17 22 18 13 1 -13z"/>
<path d="M5288 6323 c7 -3 16 -2 19 1 4 3 -2 6 -13 5 -11 0 -14 -3 -6 -6z"/>
<path d="M4810 6310 c8 -5 20 -10 25 -10 6 0 3 5 -5 10 -8 5 -19 10 -25 10 -5
0 -3 -5 5 -10z"/>
<path d="M5207 6292 c-36 -26 -77 -77 -77 -96 0 -5 10 6 23 25 12 18 42 48 65
66 52 40 43 44 -11 5z"/>
<path d="M5503 6269 c38 -34 52 -56 62 -94 8 -27 14 -40 14 -28 2 49 -50 126
-104 155 -11 6 2 -9 28 -33z"/>
<path d="M4870 6285 c14 -8 30 -14 35 -14 6 0 -1 6 -15 14 -14 8 -29 14 -35
14 -5 0 1 -6 15 -14z"/>
<path d="M4745 6203 c15 -24 30 -43 32 -43 7 0 -31 61 -46 73 -8 7 -2 -7 14
-30z"/>
<path d="M5005 6220 c3 -5 8 -10 11 -10 2 0 4 5 4 10 0 6 -5 10 -11 10 -5 0
-7 -4 -4 -10z"/>
<path d="M5288 6198 c-13 -13 -16 -17 -6 -9 10 8 38 18 61 22 l42 6 -37 2
c-26 1 -44 -6 -60 -21z"/>
<path d="M7565 6210 c-76 -14 -155 -59 -189 -108 -26 -37 -31 -55 -34 -116 -7
-140 53 -204 255 -270 104 -35 133 -57 133 -101 0 -43 -34 -71 -96 -81 -51 -7
-181 11 -233 32 -19 8 -36 13 -38 11 -1 -2 -6 -37 -9 -79 l-7 -75 64 -18 c35
-10 109 -20 164 -23 230 -10 355 75 355 243 0 106 -62 188 -172 229 -24 8 -69
25 -101 37 -115 41 -149 104 -84 153 39 28 158 27 236 -3 30 -11 55 -20 56
-18 5 10 23 142 20 147 -9 14 -121 39 -195 44 -41 2 -97 1 -125 -4z"/>
<path d="M5400 6199 c8 -8 21 -21 29 -29 12 -12 11 -10 0 9 -9 14 -22 27 -30
29 -11 3 -11 2 1 -9z"/>
<path d="M5022 6180 c0 -14 2 -19 5 -12 2 6 2 18 0 25 -3 6 -5 1 -5 -13z"/>
<path d="M5950 5801 l0 -401 100 0 100 0 0 138 0 137 38 0 c38 0 39 0 128
-137 l89 -138 118 0 c92 0 117 3 111 13 -5 6 -31 44 -59 82 -29 39 -74 103
-101 144 l-49 74 25 16 c52 34 86 71 109 116 20 41 23 58 19 126 -6 104 -36
150 -123 194 l-60 30 -222 3 -223 4 0 -401z m375 235 c43 -28 58 -61 53 -116
-8 -85 -60 -120 -175 -120 l-53 0 0 129 0 130 75 -3 c48 -2 84 -9 100 -20z"/>
<path d="M6700 5800 l0 -400 280 0 280 0 0 70 0 70 -182 2 -183 3 -3 98 -3 97
151 0 150 0 0 70 0 70 -150 0 -150 0 0 85 0 85 173 2 172 3 3 73 3 72 -271 0
-270 0 0 -400z"/>
<path d="M7960 6120 l0 -80 110 0 110 0 0 -320 0 -320 100 0 100 0 0 320 0
320 120 0 120 0 0 80 0 80 -330 0 -330 0 0 -80z"/>
<path d="M4790 6130 c6 -11 13 -20 16 -20 2 0 0 9 -6 20 -6 11 -13 20 -16 20
-2 0 0 -9 6 -20z"/>
<path d="M5112 6115 c0 -16 2 -22 5 -12 2 9 2 23 0 30 -3 6 -5 -1 -5 -18z"/>
<path d="M5441 6113 c0 -18 -12 -45 -28 -64 -23 -27 -24 -30 -5 -18 27 17 45
59 39 91 -3 18 -5 16 -6 -9z"/>
<path d="M4840 6040 c11 -22 23 -40 25 -40 3 0 -4 18 -15 40 -11 22 -23 40
-25 40 -3 0 4 -18 15 -40z"/>
<path d="M5572 6060 c0 -14 2 -19 5 -12 2 6 2 18 0 25 -3 6 -5 1 -5 -13z"/>
<path d="M5260 6056 c0 -2 8 -10 18 -17 15 -13 16 -12 3 4 -13 16 -21 21 -21
13z"/>
<path d="M4920 6044 c0 -6 7 -19 16 -30 14 -18 14 -18 3 6 -14 31 -19 36 -19
24z"/>
<path d="M5060 6015 c0 -5 5 -17 10 -25 5 -8 10 -10 10 -5 0 6 -5 17 -10 25
-5 8 -10 11 -10 5z"/>
<path d="M5333 6013 c9 -2 25 -2 35 0 9 3 1 5 -18 5 -19 0 -27 -2 -17 -5z"/>
<path d="M5546 5985 c-9 -26 -7 -32 5 -12 6 10 9 21 6 23 -2 3 -7 -2 -11 -11z"/>
<path d="M5150 5970 c6 -11 13 -20 16 -20 2 0 0 9 -6 20 -6 11 -13 20 -16 20
-2 0 0 -9 6 -20z"/>
<path d="M4880 5960 c6 -11 13 -20 16 -20 2 0 0 9 -6 20 -6 11 -13 20 -16 20
-2 0 0 -9 6 -20z"/>
<path d="M3671 5886 c-59 -103 -96 -203 -120 -323 -33 -161 -62 -143 232 -143
l253 0 12 123 c10 104 35 231 58 290 7 20 -17 33 -76 41 -44 6 -45 6 -79 -39
-19 -26 -34 -53 -34 -61 0 -8 -3 -12 -5 -9 -3 3 -11 -4 -19 -15 -8 -11 -18
-20 -22 -20 -4 0 -31 39 -60 88 -28 48 -62 100 -74 115 l-22 29 -44 -76z m53
46 c3 -5 -1 -9 -9 -9 -8 0 -12 4 -9 9 3 4 7 8 9 8 2 0 6 -4 9 -8z m343 -78
c-3 -3 -12 -4 -19 -1 -8 3 -5 6 6 6 11 1 17 -2 13 -5z"/>
<path d="M4966 5947 c3 -10 9 -15 12 -12 3 3 0 11 -7 18 -10 9 -11 8 -5 -6z"/>
<path d="M5515 5924 c-9 -15 -12 -23 -6 -20 11 7 35 46 28 46 -3 0 -12 -12
-22 -26z"/>
<path d="M5185 5916 c10 -14 19 -26 22 -26 7 0 -17 39 -28 46 -6 3 -3 -5 6
-20z"/>
<path d="M4828 5913 c6 -2 18 -2 25 0 6 3 1 5 -13 5 -14 0 -19 -2 -12 -5z"/>
<path d="M4753 5903 c9 -2 23 -2 30 0 6 3 -1 5 -18 5 -16 0 -22 -2 -12 -5z"/>
<path d="M4658 5893 c12 -2 32 -2 45 0 12 2 2 4 -23 4 -25 0 -35 -2 -22 -4z"/>
<path d="M5005 5869 c-4 -6 -4 -13 -1 -16 3 -4 6 -1 6 5 0 6 8 13 18 15 15 4
15 5 0 6 -9 0 -20 -4 -23 -10z"/>
<path d="M4177 5843 c-9 -15 -56 -238 -62 -293 -3 -30 -7 -72 -9 -92 l-4 -38
208 0 c128 0 210 4 212 10 2 5 1 92 -2 192 l-5 183 -90 7 c-49 4 -123 15 -164
23 -86 18 -79 17 -84 8z m180 -39 c-3 -3 -12 -4 -19 -1 -8 3 -5 6 6 6 11 1 17
-2 13 -5z m-210 -176 c-3 -8 -6 -5 -6 6 -1 11 2 17 5 13 3 -3 4 -12 1 -19z"/>
<path d="M5011 5824 c0 -11 3 -14 6 -6 3 7 2 16 -1 19 -3 4 -6 -2 -5 -13z"/>
<path d="M5453 5828 c-15 -20 -25 -38 -20 -38 3 0 12 11 21 25 17 26 16 35 -1
13z"/>
<path d="M4753 5823 c9 -2 25 -2 35 0 9 3 1 5 -18 5 -19 0 -27 -2 -17 -5z"/>
<path d="M4663 5813 c15 -2 37 -2 50 0 12 2 0 4 -28 4 -27 0 -38 -2 -22 -4z"/>
<path d="M5261 5803 c7 -12 15 -20 18 -17 3 2 -3 12 -13 22 -17 16 -18 16 -5
-5z"/>
<path d="M4602 5618 l-2 -198 205 0 205 0 -2 38 c-1 36 -1 36 -5 5 l-4 -33
-194 0 -195 0 -3 193 -2 192 -3 -197z"/>
<path d="M5200 5760 c6 -11 13 -20 16 -20 2 0 0 9 -6 20 -6 11 -13 20 -16 20
-2 0 0 -9 6 -20z"/>
<path d="M5390 5734 c-18 -25 -30 -47 -28 -49 1 -2 18 19 36 46 41 62 34 65
-8 3z"/>
<path d="M5490 5748 c-10 -21 -10 -21 3 -6 8 10 18 14 22 10 5 -4 5 -1 1 6
-10 17 -14 15 -26 -10z"/>
<path d="M5520 5735 c0 -5 5 -17 10 -25 5 -8 10 -10 10 -5 0 6 -5 17 -10 25
-5 8 -10 11 -10 5z"/>
<path d="M5459 5703 c-13 -16 -12 -17 4 -4 9 7 17 15 17 17 0 8 -8 3 -21 -13z"/>
<path d="M5051 5674 c0 -11 3 -14 6 -6 3 7 2 16 -1 19 -3 4 -6 -2 -5 -13z"/>
<path d="M5541 5685 c1 -19 18 -51 18 -35 0 8 -4 22 -9 30 -5 8 -9 11 -9 5z"/>
<path d="M5390 5608 c-19 -24 -26 -37 -17 -29 19 15 61 71 54 71 -2 0 -19 -19
-37 -42z"/>
<path d="M5062 5620 c0 -14 2 -19 5 -12 2 6 2 18 0 25 -3 6 -5 1 -5 -13z"/>
<path d="M5315 5600 c10 -11 20 -20 23 -20 3 0 -3 9 -13 20 -10 11 -20 20 -23
20 -3 0 3 -9 13 -20z"/>
<path d="M5572 5580 c0 -14 2 -19 5 -12 2 6 2 18 0 25 -3 6 -5 1 -5 -13z"/>
<path d="M4991 5574 c0 -11 3 -14 6 -6 3 7 2 16 -1 19 -3 4 -6 -2 -5 -13z"/>
<path d="M5072 5550 c0 -19 2 -27 5 -17 2 9 2 25 0 35 -3 9 -5 1 -5 -18z"/>
<path d="M5582 5525 c0 -16 2 -22 5 -12 2 9 2 23 0 30 -3 6 -5 -1 -5 -18z"/>
<path d="M5081 5458 l-1 -38 260 0 260 0 -2 38 c-1 37 -1 37 -5 4 l-4 -32
-247 2 -247 3 -6 30 c-6 29 -7 29 -8 -7z"/>
<path d="M3525 5313 c3 -21 10 -74 16 -117 20 -148 114 -386 151 -386 10 0 83
18 161 40 78 21 166 44 195 51 51 11 53 12 47 38 -21 82 -45 231 -51 315 l-7
96 -259 0 -258 0 5 -37z"/>
<path d="M4109 5343 c-6 -49 17 -226 43 -330 23 -94 15 -90 128 -65 l75 17 3
58 c3 86 33 146 109 217 42 40 63 67 59 77 -3 8 -6 19 -6 24 0 11 -410 12
-411 2z"/>
<path d="M4610 5335 c0 -13 4 -14 20 -5 12 6 88 10 196 10 l176 -2 -6 -46 c-3
-26 -8 -77 -12 -115 -3 -37 -10 -69 -14 -72 -4 -3 -18 14 -30 38 -38 73 -109
135 -192 166 -51 19 -28 -4 27 -28 60 -26 138 -101 161 -156 8 -19 14 -65 15
-102 1 -57 2 -63 10 -38 14 46 37 191 44 283 l7 82 -201 0 c-174 0 -201 -2
-201 -15z"/>
<path d="M5072 5237 c-6 -61 -21 -148 -33 -192 -11 -44 -22 -86 -22 -94 -1
-10 28 -23 93 -43 52 -16 143 -44 202 -63 59 -19 112 -35 118 -35 12 0 92 165
119 247 22 65 51 217 51 264 l0 29 -258 0 -258 0 -12 -113z m367 87 c2 -2 -10
-4 -28 -4 -17 0 -43 -7 -56 -16 -14 -9 -25 -12 -25 -6 0 5 -25 -3 -55 -20 -30
-16 -55 -32 -55 -34 0 -3 5 -2 11 2 6 3 4 -4 -5 -18 -11 -18 -24 -24 -45 -22
-22 1 -28 -2 -24 -12 4 -12 0 -12 -20 -5 -25 10 -50 -4 -46 -25 1 -5 0 -11 -1
-14 -3 -9 -11 -44 -17 -73 -3 -15 -9 -29 -13 -32 -4 -3 -4 12 1 33 16 61 24
128 27 215 l2 49 173 -7 c94 -4 174 -9 176 -11z m151 -14 c0 -11 -2 -20 -4
-20 -2 0 -6 9 -9 20 -3 11 -1 20 4 20 5 0 9 -9 9 -20z m-13 -67 c-3 -10 -5 -4
-5 12 0 17 2 24 5 18 2 -7 2 -21 0 -30z m-10 -55 c-3 -8 -6 -5 -6 6 -1 11 2
17 5 13 3 -3 4 -12 1 -19z m-450 -13 c0 -8 -4 -12 -9 -9 -5 3 -6 10 -3 15 9
13 12 11 12 -6z"/>
<path d="M4653 5313 c9 -2 23 -2 30 0 6 3 -1 5 -18 5 -16 0 -22 -2 -12 -5z"/>
<path d="M4576 5226 c-143 -53 -192 -198 -121 -353 26 -57 162 -258 194 -287
17 -16 23 -10 101 110 108 166 133 222 138 304 3 56 0 72 -25 119 -22 42 -39
60 -80 83 -64 36 -148 46 -207 24z m148 -141 c21 -19 26 -33 26 -69 0 -37 -5
-48 -31 -70 -34 -29 -51 -31 -97 -15 -63 22 -83 103 -37 153 33 36 100 37 139
1z"/>
<path d="M6144 5197 c-185 -48 -317 -245 -301 -452 6 -87 27 -138 74 -187 56
-57 122 -81 223 -81 72 0 95 4 143 26 l57 26 -6 43 c-9 69 -9 68 -56 45 -59
-30 -155 -30 -195 -1 -51 37 -65 78 -60 179 4 104 24 160 82 223 67 74 164 91
255 43 22 -11 42 -21 44 -21 2 0 9 20 15 44 6 24 13 51 17 60 17 43 -185 80
-292 53z"/>
<path d="M8896 5188 c-26 -23 -31 -39 -28 -90 2 -35 42 -62 90 -60 47 2 92 47
92 93 0 70 -98 106 -154 57z"/>
<path d="M8227 5145 c-32 -7 -63 -17 -68 -22 -5 -5 -15 -40 -22 -79 -12 -67
-13 -69 -42 -69 -31 -1 -42 -20 -44 -77 -1 -25 1 -27 29 -21 36 7 35 11 10
-112 -28 -134 -27 -216 3 -250 37 -43 105 -51 200 -23 36 11 37 13 37 56 0 38
-2 43 -17 37 -60 -26 -103 -8 -103 42 0 14 10 77 22 140 l21 115 63 -4 63 -4
6 31 c4 16 9 38 11 48 5 15 -2 17 -55 17 -71 0 -71 1 -46 105 23 96 28 91 -68
70z"/>
<path d="M6590 4981 c-119 -37 -200 -156 -200 -297 0 -136 71 -204 213 -204
122 0 202 52 253 165 66 146 19 301 -101 334 -45 12 -127 13 -165 2z m105 -87
c8 -4 22 -19 30 -35 36 -69 -6 -241 -69 -283 -65 -42 -116 0 -116 94 0 139 79
253 155 224z"/>
<path d="M7785 4971 c-23 -10 -53 -32 -67 -50 -15 -17 -29 -31 -31 -31 -3 0
-3 18 0 40 l6 40 -71 0 -70 0 -7 -57 c-4 -32 -20 -123 -35 -203 -15 -80 -31
-162 -34 -182 l-7 -38 78 0 78 0 17 103 c23 135 33 167 68 215 41 57 73 77 99
62 27 -14 27 -37 0 -176 -35 -179 -15 -220 102 -212 66 5 89 21 89 65 0 18 -6
23 -25 23 -14 0 -28 6 -31 14 -3 8 4 63 16 123 12 59 22 130 22 157 0 105 -92
155 -197 107z"/>
<path d="M8693 4975 c-21 -9 -46 -35 -69 -70 -19 -31 -37 -55 -39 -53 -2 2 1
25 7 51 14 69 11 73 -66 69 l-66 -4 0 -32 c0 -34 -65 -400 -76 -429 -5 -15 3
-17 75 -17 76 0 81 1 85 23 31 151 42 189 62 233 33 69 65 97 121 104 l46 5
12 57 c8 39 8 61 1 68 -14 14 -55 12 -93 -5z"/>
<path d="M9230 4975 c-66 -21 -115 -67 -152 -143 -27 -55 -34 -80 -36 -147 -3
-68 0 -87 20 -124 32 -62 72 -81 172 -81 89 0 142 13 181 44 24 20 27 26 21
62 l-7 40 -59 -29 c-80 -40 -134 -41 -166 -4 -13 16 -24 39 -24 53 0 22 4 24
43 25 23 0 49 2 57 4 55 11 102 28 131 48 37 24 79 97 79 135 0 39 -31 92 -63
109 -43 22 -142 26 -197 8z m118 -118 c3 -32 -2 -43 -30 -71 -32 -32 -110 -58
-125 -42 -11 11 29 96 59 127 23 23 38 29 62 27 28 -3 31 -7 34 -41z"/>
<path d="M9647 4976 c-71 -26 -107 -76 -107 -150 0 -51 27 -91 88 -127 77 -46
101 -86 70 -117 -19 -19 -95 -14 -138 8 -22 11 -41 20 -44 20 -5 0 -26 -67
-26 -83 0 -4 15 -16 33 -27 25 -16 50 -20 117 -20 139 1 208 48 217 149 6 63
-23 104 -112 156 -74 44 -87 65 -59 96 22 25 76 24 132 -1 49 -22 54 -18 56
47 1 32 -3 37 -34 49 -46 17 -145 17 -193 0z"/>
<path d="M8925 4970 c-60 -4 -70 -8 -73 -25 -2 -11 -19 -102 -38 -202 -20
-104 -32 -193 -28 -208 9 -38 41 -55 101 -55 67 0 103 16 103 46 0 12 2 29 5
36 4 10 -3 14 -22 13 -40 0 -40 21 1 220 20 93 32 172 28 175 -4 3 -38 3 -77
0z"/>
<path d="M6965 4873 c-9 -54 -23 -126 -31 -161 -38 -170 -3 -240 118 -235 68
3 109 21 140 63 20 28 40 40 37 23 -9 -53 26 -83 96 -83 62 0 95 22 95 65 0
20 -5 25 -25 25 -23 0 -25 4 -25 40 0 22 14 108 30 190 17 82 30 154 30 160 0
6 -30 10 -73 10 l-73 0 -26 -129 c-35 -179 -81 -261 -145 -261 -46 0 -50 36
-19 193 15 78 32 154 36 170 l9 27 -78 0 -79 0 -17 -97z"/>
<path d="M4277 4875 c-32 -7 -63 -17 -67 -21 -12 -12 75 -192 137 -285 57 -83
151 -199 162 -199 5 0 11 52 14 116 l5 116 -45 72 c-49 75 -103 183 -103 204
0 15 -26 14 -103 -3z"/>
<path d="M4924 4833 c-67 -131 -254 -413 -274 -413 -6 0 -10 14 -10 31 0 34
-15 69 -30 69 -6 0 -10 -36 -10 -81 l0 -82 75 6 c158 14 345 82 485 177 62 42
220 186 220 200 0 8 -10 11 -238 80 -89 28 -171 50 -181 50 -11 0 -26 -15 -37
-37z"/>
<path d="M3980 4805 c-180 -47 -240 -65 -240 -74 0 -18 147 -146 226 -198 107
-69 208 -116 323 -149 128 -36 136 -32 72 41 -66 75 -149 213 -197 328 -20 48
-42 87 -48 86 -6 0 -67 -16 -136 -34z"/>
</g>
</svg>
